<svg xmlns="http://www.w3.org/2000/svg" xmlns:xlink="http://www.w3.org/1999/xlink" version="1.1" width="200px" height="24px" style="shape-rendering:geometricPrecision; text-rendering:geometricPrecision; image-rendering:optimizeQuality; fill-rule:evenodd; clip-rule:evenodd">
<g><path style="opacity:0.968" fill="#fefffe" d="M 167.5,892.5 C 206.166,889.011 228.666,906.345 235,944.5C 236.029,950.123 236.529,955.79 236.5,961.5C 224.167,962.334 211.833,962.834 199.5,963C 199,962.5 198.5,962 198,961.5C 197.972,951.049 195.305,941.383 190,932.5C 177.345,924.505 168.011,927.505 162,941.5C 157.329,962.637 156.329,983.97 159,1005.5C 159.632,1014.42 163.132,1021.92 169.5,1028C 179.559,1032.54 187.392,1030.04 193,1020.5C 195.617,1013.7 197.45,1006.7 198.5,999.5C 210.867,998.627 223.2,999.127 235.5,1001C 237.285,1024.92 228.285,1043.92 208.5,1058C 190.295,1066.82 171.629,1067.82 152.5,1061C 132.779,1050.77 120.946,1034.6 117,1012.5C 111.197,984.357 112.864,956.69 122,929.5C 130.535,908.78 145.702,896.446 167.5,892.5 Z"/></g>
<g><path style="opacity:0.973" fill="#fefffe" d="M 1477.5,895.5 C 1491.18,895.167 1504.85,895.501 1518.5,896.5C 1534.25,950.667 1549.92,1004.83 1565.5,1059C 1564.5,1060 1563.5,1061 1562.5,1062C 1549.17,1062.5 1535.84,1062.67 1522.5,1062.5C 1520.29,1051.47 1517.96,1040.47 1515.5,1029.5C 1501.83,1029.5 1488.17,1029.5 1474.5,1029.5C 1472.04,1040.47 1469.71,1051.47 1467.5,1062.5C 1455.15,1062.83 1442.82,1062.5 1430.5,1061.5C 1429.83,1060.5 1429.17,1059.5 1428.5,1058.5C 1445.04,1004.21 1461.37,949.881 1477.5,895.5 Z M 1494.5,947.5 C 1498.79,963.313 1502.79,979.313 1506.5,995.5C 1498.83,995.5 1491.17,995.5 1483.5,995.5C 1487.17,979.5 1490.83,963.5 1494.5,947.5 Z"/></g>
<g><path style="opacity:0.971" fill="#fefffe" d="M 1730.5,895.5 C 1743.17,895.333 1755.84,895.5 1768.5,896C 1769,896.5 1769.5,897 1770,897.5C 1770.67,951.833 1770.67,1006.17 1770,1060.5C 1769.5,1061 1769,1061.5 1768.5,1062C 1755.83,1062.67 1743.17,1062.67 1730.5,1062C 1730,1061.5 1729.5,1061 1729,1060.5C 1728.33,1006.17 1728.33,951.833 1729,897.5C 1729.72,896.956 1730.22,896.289 1730.5,895.5 Z"/></g>
<g><path style="opacity:0.97" fill="#fefffe" d="M 441.5,934.5 C 474.502,930.371 494.668,944.371 502,976.5C 503.524,989.796 503.857,1003.13 503,1016.5C 498.668,1053.17 478.168,1069.33 441.5,1065C 422.844,1062.01 410.677,1051.51 405,1033.5C 398.476,1009.27 399.143,985.268 407,961.5C 413.987,946.674 425.487,937.674 441.5,934.5 Z M 450.5,963.5 C 455.023,963.345 458.189,965.345 460,969.5C 464.21,988.747 464.543,1008.08 461,1027.5C 458.486,1036.27 453.486,1038.27 446,1033.5C 443.576,1028.81 442.243,1023.81 442,1018.5C 441.127,1003.8 441.46,989.13 443,974.5C 443.561,969.34 446.061,965.673 450.5,963.5 Z"/></g>
<g><path style="opacity:0.964" fill="#fefffe" d="M 727.5,934.5 C 732.565,934.219 737.565,934.552 742.5,935.5C 743.666,947.486 743.833,959.486 743,971.5C 740.796,974.733 737.962,975.4 734.5,973.5C 721.594,975.581 714.76,983.247 714,996.5C 713.667,1017.83 713.333,1039.17 713,1060.5C 712.5,1061 712,1061.5 711.5,1062C 699.5,1062.67 687.5,1062.67 675.5,1062C 675,1061.5 674.5,1061 674,1060.5C 673.333,1020.17 673.333,979.833 674,939.5C 674.5,939 675,938.5 675.5,938C 686.167,937.333 696.833,937.333 707.5,938C 708,938.5 708.5,939 709,939.5C 709.333,942.833 709.667,946.167 710,949.5C 713.889,942.103 719.722,937.103 727.5,934.5 Z"/></g>
<g><path style="opacity:0.973" fill="#fefffe" d="M 959.5,934.5 C 979.711,932.685 993.878,941.018 1002,959.5C 1009.32,983.331 1009.99,1007.33 1004,1031.5C 997.212,1055.64 981.379,1066.47 956.5,1064C 952.195,1063.1 948.361,1061.26 945,1058.5C 944.667,1072.5 944.333,1086.5 944,1100.5C 943.5,1101 943,1101.5 942.5,1102C 930.833,1102.67 919.167,1102.67 907.5,1102C 907,1101.5 906.5,1101 906,1100.5C 905.333,1046.83 905.333,993.167 906,939.5C 906.5,939 907,938.5 907.5,938C 918.5,937.333 929.5,937.333 940.5,938C 942.121,940.166 942.955,942.666 943,945.5C 947.632,940.34 953.132,936.673 959.5,934.5 Z M 954.5,962.5 C 959.023,962.345 962.189,964.345 964,968.5C 968.637,988.832 968.637,1009.17 964,1029.5C 959.112,1036.54 953.445,1037.21 947,1031.5C 945.035,1020.94 944.202,1010.27 944.5,999.5C 944.451,990.462 944.951,981.462 946,972.5C 947.289,967.721 950.123,964.388 954.5,962.5 Z"/></g>
<g><path style="opacity:0.968" fill="#fefffe" d="M 1215.5,934.5 C 1235.04,931.748 1251.21,937.748 1264,952.5C 1274.15,969.956 1277.32,988.456 1273.5,1008C 1253.5,1008.5 1233.5,1008.67 1213.5,1008.5C 1212.99,1016.01 1213.82,1023.34 1216,1030.5C 1222.29,1038.09 1228.96,1038.42 1236,1031.5C 1238.58,1026.84 1239.75,1021.84 1239.5,1016.5C 1250.92,1016.51 1262.25,1017.34 1273.5,1019C 1274.89,1019.96 1275.56,1021.29 1275.5,1023C 1268.43,1055.22 1248.43,1069.22 1215.5,1065C 1196.23,1061.78 1183.4,1050.95 1177,1032.5C 1169.95,1007.67 1171.29,983.34 1181,959.5C 1188.75,945.906 1200.25,937.573 1215.5,934.5 Z M 1223.5,963.5 C 1228.25,963.136 1232.08,964.802 1235,968.5C 1236.91,972.978 1238.08,977.645 1238.5,982.5C 1230.17,982.5 1221.83,982.5 1213.5,982.5C 1213.1,973.943 1216.43,967.61 1223.5,963.5 Z"/></g>
</svg>
