<svg xmlns="http://www.w3.org/2000/svg" xmlns:xlink="http://www.w3.org/1999/xlink" version="1.1" width="200px" height="24px" viewBox="2000 300 200 24"  style="shape-rendering:geometricPrecision; text-rendering:geometricPrecision; image-rendering:optimizeQuality; fill-rule:evenodd; clip-rule:evenodd">
<g><path style="opacity:0.998" fill="#fefffe" d="M 2799.5,271.5 C 2883.17,271.333 2966.83,271.5 3050.5,272C 3052.33,273.167 3053.83,274.667 3055,276.5C 3055.5,349.833 3055.67,423.166 3055.5,496.5C 3107.31,494.017 3158.97,495.684 3210.5,501.5C 3210.33,426.499 3210.5,351.499 3211,276.5C 3212.17,274.667 3213.67,273.167 3215.5,272C 3299.17,271.333 3382.83,271.333 3466.5,272C 3468.33,273.167 3469.83,274.667 3471,276.5C 3471.33,377.833 3471.67,479.167 3472,580.5C 3511.83,601.667 3551.67,622.833 3591.5,644C 3608.37,651.847 3625.71,658.514 3643.5,664C 3650.27,665.534 3657.11,666.701 3664,667.5C 3675.57,666.533 3687.07,665.033 3698.5,663C 3721.54,657.822 3744.54,652.489 3767.5,647C 3813.45,639.983 3854.11,651.316 3889.5,681C 3911.77,701.083 3930.61,723.917 3946,749.5C 3999.24,833.676 4036.24,924.676 4057,1022.5C 4079.11,1127.89 4085.78,1234.22 4077,1341.5C 4071.44,1400.42 4054.44,1455.75 4026,1507.5C 3995.55,1560.64 3952.72,1600.48 3897.5,1627C 3837.92,1651.84 3777.59,1653.84 3716.5,1633C 3690.24,1622.12 3667.74,1605.95 3649,1584.5C 3623.65,1552.51 3602.32,1517.84 3585,1480.5C 3559.95,1423.74 3533.29,1367.74 3505,1312.5C 3439.74,1184.57 3340.24,1094.41 3206.5,1042C 3139.59,1017.86 3071.26,1012.53 3001.5,1026C 2957.72,1036.55 2919.06,1056.55 2885.5,1086C 2848.3,1120.92 2818.8,1161.42 2797,1207.5C 2770.89,1264.85 2753.89,1324.85 2746,1387.5C 2725.51,1582.09 2747.51,1771.75 2812,1956.5C 2843.75,2046.34 2886.75,2130 2941,2207.5C 2986.98,2271.82 3043.48,2324.65 3110.5,2366C 3201.59,2417.94 3299.59,2440.6 3404.5,2434C 3512.47,2427.01 3612.47,2395.34 3704.5,2339C 3730.58,2322.36 3754.74,2303.19 3777,2281.5C 3793.1,2262.73 3809.93,2244.57 3827.5,2227C 3841.47,2213.34 3857.47,2202.68 3875.5,2195C 3905.29,2188.11 3931.96,2194.45 3955.5,2214C 3982.32,2239.1 4001.48,2269.26 4013,2304.5C 4025.26,2345.31 4029.59,2386.97 4026,2429.5C 4022.02,2480.38 4012.02,2530.05 3996,2578.5C 3972.12,2654.26 3938.12,2724.93 3894,2790.5C 3878.37,2812.47 3860.87,2832.97 3841.5,2852C 3822.56,2865.81 3801.89,2876.47 3779.5,2884C 3750.52,2893.58 3721.19,2901.91 3691.5,2909C 3659.44,2920.19 3628.44,2933.86 3598.5,2950C 3557.49,2974.42 3515.33,2996.92 3472,3017.5C 3471.67,3092.5 3471.33,3167.5 3471,3242.5C 3469.83,3244.33 3468.33,3245.83 3466.5,3247C 3382.83,3247.67 3299.17,3247.67 3215.5,3247C 3213.67,3245.83 3212.17,3244.33 3211,3242.5C 3210.5,3192.83 3210.33,3143.17 3210.5,3093.5C 3159,3099.87 3107.33,3101.87 3055.5,3099.5C 3055.67,3147.17 3055.5,3194.83 3055,3242.5C 3053.83,3244.33 3052.33,3245.83 3050.5,3247C 2966.83,3247.67 2883.17,3247.67 2799.5,3247C 2797.67,3245.83 2796.17,3244.33 2795,3242.5C 2794.67,3178.83 2794.33,3115.17 2794,3051.5C 2542.44,2968.32 2344.78,2815.98 2201,2594.5C 1988.48,2258.12 1919.82,1894.12 1995,1502.5C 2050.22,1246.68 2167.22,1024.68 2346,836.5C 2464.86,715.389 2603.36,623.223 2761.5,560C 2772.35,555.662 2783.35,551.829 2794.5,548.5C 2794.33,457.833 2794.5,367.166 2795,276.5C 2796.37,274.638 2797.87,272.972 2799.5,271.5 Z"/></g>
<g><path style="opacity:0.998" fill="#fefffe" d="M 22435.5,484.5 C 22509.6,480.703 22578.3,498.203 22641.5,537C 22711.1,581.904 22769.6,638.404 22817,706.5C 22864,776.033 22906.6,848.366 22945,923.5C 23014.8,1060.86 23079.5,1200.52 23139,1342.5C 23195.8,1477.78 23250.8,1613.78 23304,1750.5C 23402.3,2006.5 23500.7,2262.5 23599,2518.5C 23609.5,2545.18 23620.8,2571.52 23633,2597.5C 23641,2614.15 23650,2630.15 23660,2645.5C 23677.5,2669.28 23700.6,2684.78 23729.5,2692C 23746.4,2695.4 23763.1,2699.73 23779.5,2705C 23825.9,2723.43 23852.1,2757.59 23858,2807.5C 23867.6,2906.06 23828.8,2977.9 23741.5,3023C 23694.3,3044.8 23645,3059.8 23593.5,3068C 23512.4,3081.11 23430.7,3088.11 23348.5,3089C 23220.7,3091.14 23093,3087.81 22965.5,3079C 22913.2,3075.13 22861.2,3068.8 22809.5,3060C 22772,3054.95 22737,3042.95 22704.5,3024C 22632.9,2975.2 22604.4,2907.7 22619,2821.5C 22623.8,2795.73 22636,2774.23 22655.5,2757C 22672.3,2743.74 22690.7,2732.74 22710.5,2724C 22727.6,2718.11 22743.6,2710.11 22758.5,2700C 22783.7,2680.26 22796.4,2654.26 22796.5,2622C 22796.6,2548.14 22760.9,2502.47 22689.5,2485C 22626.3,2474.31 22562.6,2467.64 22498.5,2465C 22410.5,2460.85 22322.5,2459.85 22234.5,2462C 22199.3,2462.97 22164.3,2465.97 22129.5,2471C 22110.9,2473.39 22093.3,2478.73 22076.5,2487C 22064.2,2496.34 22054.3,2507.84 22047,2521.5C 22021.9,2567.84 22011.9,2617.17 22017,2669.5C 22018.4,2682.57 22024.9,2692.07 22036.5,2698C 22063.8,2711.56 22091.8,2723.56 22120.5,2734C 22173.4,2757.56 22200.9,2798.39 22203,2856.5C 22205.5,2926.97 22177.4,2981.14 22118.5,3019C 22082.7,3040.39 22044.3,3055.73 22003.5,3065C 21942.9,3078.47 21881.6,3085.81 21819.5,3087C 21724.2,3089.84 21629.2,3085.84 21534.5,3075C 21489.4,3069.72 21445.4,3059.72 21402.5,3045C 21343.8,3019.79 21310.6,2975.29 21303,2911.5C 21298.8,2881.24 21300.2,2851.24 21307,2821.5C 21313.1,2799.55 21324.6,2781.05 21341.5,2766C 21365.7,2746.91 21392.3,2731.91 21421.5,2721C 21489.4,2690.72 21540.9,2642.89 21576,2577.5C 21612.7,2504.94 21645.4,2430.61 21674,2354.5C 21773.3,2091.73 21871.9,1828.73 21970,1565.5C 22005.9,1467 22038.3,1367.34 22067,1266.5C 22091.3,1176.05 22105.6,1084.05 22110,990.5C 22110.8,942.817 22112.1,895.15 22114,847.5C 22115.3,806.694 22120.3,766.361 22129,726.5C 22142.4,682.988 22164.1,644.322 22194,610.5C 22232.9,562.588 22281.1,527.421 22338.5,505C 22370,493.727 22402.4,486.894 22435.5,484.5 Z M 22384.5,1497.5 C 22396.8,1496.57 22408.1,1499.4 22418.5,1506C 22430,1514.54 22439.9,1524.71 22448,1536.5C 22463.6,1560.68 22477.9,1585.68 22491,1611.5C 22532.9,1694.29 22571.2,1778.62 22606,1864.5C 22618.3,1894.62 22627.6,1925.62 22634,1957.5C 22638.5,1978.35 22631,1992.85 22611.5,2001C 22601.1,2004.74 22590.5,2007.07 22579.5,2008C 22468.5,2008.67 22357.5,2008.67 22246.5,2008C 22203.7,2003.57 22189.2,1980.74 22203,1939.5C 22214,1895.34 22226.6,1851.67 22241,1808.5C 22266.1,1732.75 22291.5,1657.08 22317,1581.5C 22325.9,1556.1 22339.1,1533.27 22356.5,1513C 22364.6,1505.45 22373.9,1500.29 22384.5,1497.5 Z"/></g>
<g><path style="opacity:0.998" fill="#fefffe" d="M 26554.5,507.5 C 26662.1,507.461 26768.4,519.295 26873.5,543C 26924.1,553.132 26970.4,572.798 27012.5,602C 27068.3,646.495 27093.5,704.662 27088,776.5C 27087.5,802.548 27079.5,825.881 27064,846.5C 27047,862.889 27028.9,877.722 27009.5,891C 26990.8,903 26972.2,915 26953.5,927C 26929.8,946.666 26912.3,970.833 26901,999.5C 26882.7,1047.85 26871.7,1097.85 26868,1149.5C 26863.9,1192.43 26860.9,1235.43 26859,1278.5C 26853.5,1416.95 26851.3,1555.45 26852.5,1694C 26851.8,1876.88 26854.3,2059.71 26860,2242.5C 26862.2,2322.01 26867.2,2401.35 26875,2480.5C 26877.3,2513.05 26884.6,2544.38 26897,2574.5C 26906.4,2594.87 26919.9,2612.04 26937.5,2626C 26957.3,2641.74 26978.3,2655.74 27000.5,2668C 27069.5,2712.46 27098,2775.63 27086,2857.5C 27078.9,2901.63 27058.4,2938.13 27024.5,2967C 26996,2990.08 26964.4,3007.74 26929.5,3020C 26839.9,3048.53 26748.2,3067.19 26654.5,3076C 26530,3088.45 26405.4,3090.79 26280.5,3083C 26218,3078.81 26156.7,3068.14 26096.5,3051C 26058.2,3039.85 26022.9,3022.85 25990.5,3000C 25927.5,2950.4 25906,2886.57 25926,2808.5C 25934.9,2785.11 25947.5,2764.11 25964,2745.5C 25974.5,2734.64 25985.4,2724.14 25996.5,2714C 26021.5,2697.38 26043.4,2677.22 26062,2653.5C 26082.6,2624.71 26095.6,2592.71 26101,2557.5C 26108.1,2502.36 26113.1,2447.03 26116,2391.5C 26120.1,2316.55 26123.1,2241.55 26125,2166.5C 26130.1,1945.86 26131.5,1725.19 26129,1504.5C 26127.8,1415.04 26123.8,1325.7 26117,1236.5C 26113.6,1190.81 26107.6,1145.48 26099,1100.5C 26091.4,1056.55 26073,1017.88 26044,984.5C 26034.8,974 26025,964.167 26014.5,955C 25992.3,937.715 25970.6,919.715 25949.5,901C 25933.1,885.641 25918.6,868.808 25906,850.5C 25892.2,824.588 25885.7,796.922 25886.5,767.5C 25886.1,712.176 25908.1,668.342 25952.5,636C 25983.4,616.005 26016.4,600.005 26051.5,588C 26215.1,535.17 26382.8,508.337 26554.5,507.5 Z"/></g>
<g><path style="opacity:0.998" fill="#fefffe" d="M 7058.5,1219.5 C 7319.68,1210.21 7533.18,1305.54 7699,1505.5C 7815.15,1654.12 7886.48,1822.45 7913,2010.5C 7957.63,2356.08 7848.47,2641.58 7585.5,2867C 7350.16,3065.68 7080.16,3137.35 6775.5,3082C 6607.88,3045.81 6469.38,2962.31 6360,2831.5C 6270.6,2723.34 6211.6,2600.01 6183,2461.5C 6158.04,2335.7 6152.37,2209.03 6166,2081.5C 6194.81,1804.3 6317.98,1580.13 6535.5,1409C 6689.19,1290.37 6863.52,1227.2 7058.5,1219.5 Z M 6976.5,1650.5 C 7013.84,1652.25 7044.67,1667.25 7069,1695.5C 7091.14,1723.1 7108.14,1753.77 7120,1787.5C 7144.65,1856.08 7164.31,1926.08 7179,1997.5C 7204.63,2117.61 7221.3,2238.94 7229,2361.5C 7231.26,2400.16 7231.6,2438.83 7230,2477.5C 7228.53,2514.18 7220.2,2549.18 7205,2582.5C 7183.22,2623.16 7149.05,2643.49 7102.5,2643.5C 7061.51,2642.76 7028.35,2626.42 7003,2594.5C 6984.86,2570.89 6970.86,2544.89 6961,2516.5C 6927.93,2414.57 6901.6,2310.9 6882,2205.5C 6867.19,2130.32 6855.53,2054.65 6847,1978.5C 6841.39,1930.98 6839.39,1883.32 6841,1835.5C 6842.57,1795.23 6852.57,1757.23 6871,1721.5C 6883.3,1698.53 6900.47,1680.03 6922.5,1666C 6939.46,1656.76 6957.46,1651.6 6976.5,1650.5 Z"/></g>
<g><path style="opacity:0.998" fill="#fefffe" d="M 14718.5,3599.5 C 14437.8,3599.5 14157.2,3599.5 13876.5,3599.5C 13842.7,3581.79 13810.1,3562.29 13778.5,3541C 13749.4,3520.88 13724.5,3496.38 13704,3467.5C 13669,3413.25 13659,3354.59 13674,3291.5C 13680.3,3269.14 13692.4,3250.64 13710.5,3236C 13732.3,3218.93 13755.3,3203.6 13779.5,3190C 13812.8,3163.27 13835,3129.1 13846,3087.5C 13854.3,3055.34 13859.3,3022.68 13861,2989.5C 13868,2885.61 13872.6,2781.61 13875,2677.5C 13877.5,2580.67 13879.7,2483.84 13881.5,2387C 13878.9,2268.11 13874.7,2149.28 13869,2030.5C 13867.1,1986.68 13863.4,1943.02 13858,1899.5C 13857.2,1886.45 13852.8,1874.78 13845,1864.5C 13842.1,1862.29 13838.9,1860.45 13835.5,1859C 13808.7,1851.22 13781.7,1844.22 13754.5,1838C 13714.7,1823.22 13686.2,1796.39 13669,1757.5C 13652.5,1714.13 13649.5,1669.8 13660,1624.5C 13667.6,1593.68 13681.2,1566.01 13701,1541.5C 13722.7,1516.12 13747.2,1493.95 13774.5,1475C 13793.7,1461.92 13813.3,1449.58 13833.5,1438C 13911.6,1394.94 13991.6,1355.61 14073.5,1320C 14135.3,1293.63 14198.6,1271.63 14263.5,1254C 14308.8,1242.01 14354.8,1234.34 14401.5,1231C 14436.4,1229.2 14471,1230.86 14505.5,1236C 14519,1238.28 14531.4,1243.28 14542.5,1251C 14549.9,1259.24 14555,1268.74 14558,1279.5C 14561.1,1291.32 14563.1,1303.32 14564,1315.5C 14565,1332.49 14565.7,1349.49 14566,1366.5C 14566.4,1379.84 14570.1,1392.17 14577,1403.5C 14583.8,1411.87 14592.3,1414.37 14602.5,1411C 14621.7,1399.91 14640,1387.57 14657.5,1374C 14683.7,1351.8 14711,1331.13 14739.5,1312C 14818.7,1264.94 14904,1234.94 14995.5,1222C 15105.2,1210.76 15205.2,1236.42 15295.5,1299C 15361.6,1346.79 15417.1,1404.63 15462,1472.5C 15510.3,1546.11 15547.6,1625.11 15574,1709.5C 15625,1872.8 15644,2039.8 15631,2210.5C 15623.2,2345.12 15593.9,2474.79 15543,2599.5C 15481.3,2745.4 15390.5,2869.9 15270.5,2973C 15209.7,3023.35 15141,3059.69 15064.5,3082C 14950,3112.72 14838,3105.39 14728.5,3060C 14700.9,3048.35 14673.9,3035.35 14647.5,3021C 14638.1,3016.55 14628.3,3013.71 14618,3012.5C 14607.7,3013.32 14599.7,3017.99 14594,3026.5C 14585.1,3043.74 14580.1,3062.08 14579,3081.5C 14573.9,3134.72 14579.5,3186.72 14596,3237.5C 14606.8,3267.32 14623.7,3293.15 14646.5,3315C 14676.7,3339.2 14705.9,3364.7 14734,3391.5C 14745.8,3403.46 14753.1,3417.79 14756,3434.5C 14763.9,3477.81 14759.6,3519.81 14743,3560.5C 14736.3,3574.54 14728.2,3587.54 14718.5,3599.5 Z M 14681.5,1758.5 C 14723.4,1757.51 14759.7,1771.01 14790.5,1799C 14823.5,1831.23 14847.4,1869.39 14862,1913.5C 14878.3,1962.28 14889,2012.28 14894,2063.5C 14903.2,2159.91 14902.6,2256.24 14892,2352.5C 14886.6,2400.75 14874.9,2447.42 14857,2492.5C 14815.5,2590.85 14742.6,2627.35 14638.5,2602C 14579.1,2581.14 14550.7,2539.14 14553.5,2476C 14561.1,2285.46 14569.6,2094.96 14579,1904.5C 14581.2,1869.08 14590.5,1835.75 14607,1804.5C 14624.1,1776.54 14648.9,1761.21 14681.5,1758.5 Z"/></g>
<g><path style="opacity:0.998" fill="#fefffe" d="M 18545.5,1220.5 C 18751.2,1220.07 18924,1294.4 19064,1443.5C 19151.9,1540.48 19213.9,1652.48 19250,1779.5C 19274.5,1865.86 19280.8,1953.52 19269,2042.5C 19263.3,2083.8 19250.7,2122.8 19231,2159.5C 19218.3,2183.68 19200.5,2203.18 19177.5,2218C 19163.3,2226.3 19147.9,2230.97 19131.5,2232C 18889.8,2232.33 18648.2,2232.67 18406.5,2233C 18389.9,2235.61 18379.7,2245.11 18376,2261.5C 18372.7,2303.58 18379.7,2343.92 18397,2382.5C 18411.4,2414.39 18430.1,2443.39 18453,2469.5C 18477.8,2497.93 18505.3,2523.1 18535.5,2545C 18617.8,2601.97 18707.2,2615.97 18803.5,2587C 18866.1,2570.37 18924.1,2544.03 18977.5,2508C 18991.7,2497.76 19005.4,2486.76 19018.5,2475C 19035.1,2461.44 19053.4,2450.78 19073.5,2443C 19091.5,2437.95 19108.5,2440.28 19124.5,2450C 19139.6,2460.12 19152.5,2472.62 19163,2487.5C 19208.6,2549.95 19221.2,2618.61 19201,2693.5C 19185.6,2744.07 19160.6,2789.07 19126,2828.5C 19034.6,2928.65 18925.4,3003.15 18798.5,3052C 18650.7,3103.96 18500.1,3114.3 18346.5,3083C 18220.6,3054.91 18111,2997.25 18017.5,2910C 17935.2,2831.34 17870.4,2740.18 17823,2636.5C 17734.9,2441.93 17704.3,2238.6 17731,2026.5C 17761.2,1797.87 17857.1,1602.37 18018.5,1440C 18102.3,1359.35 18199.3,1299.35 18309.5,1260C 18386.2,1234.21 18464.9,1221.05 18545.5,1220.5 Z M 18522.5,1559.5 C 18586.5,1557.06 18634.3,1583.39 18666,1638.5C 18689.1,1681.5 18700.2,1727.5 18699.5,1776.5C 18700.1,1800.05 18695.3,1822.39 18685,1843.5C 18670.7,1865.76 18650.2,1877.92 18623.5,1880C 18560.8,1880.67 18498.2,1880.67 18435.5,1880C 18421.1,1878.99 18407.4,1875.32 18394.5,1869C 18378.7,1858.86 18369.2,1844.36 18366,1825.5C 18358,1773.43 18365,1723.43 18387,1675.5C 18397.6,1652.26 18410.6,1630.59 18426,1610.5C 18451.3,1580.43 18483.5,1563.43 18522.5,1559.5 Z"/></g>
<g><path style="opacity:0.998" fill="#fefffe" d="M 10720.5,1231.5 C 10745.2,1231.17 10769.6,1234 10793.5,1240C 10807.1,1243.67 10818,1251.17 10826,1262.5C 10834,1280.73 10839.3,1299.73 10842,1319.5C 10848.9,1362.98 10854.2,1406.64 10858,1450.5C 10859.8,1467.35 10864.5,1483.35 10872,1498.5C 10883.8,1516.25 10899,1519.75 10917.5,1509C 10929.6,1499 10939.4,1487.17 10947,1473.5C 10976,1414.36 11014.2,1361.86 11061.5,1316C 11147.7,1240.03 11246.7,1216.7 11358.5,1246C 11421,1266.15 11471.2,1302.98 11509,1356.5C 11544.3,1410.14 11569,1468.47 11583,1531.5C 11602.9,1618.71 11599.6,1705.04 11573,1790.5C 11552.5,1861.18 11518.2,1923.84 11470,1978.5C 11388,2066.94 11287.5,2099.77 11168.5,2077C 11140.4,2070.46 11114.8,2058.79 11091.5,2042C 11061.5,2018.34 11033.7,1992.17 11008,1963.5C 10992,1944.83 10976,1926.17 10960,1907.5C 10948.8,1894.28 10935,1885.11 10918.5,1880C 10895.6,1878.04 10879.4,1887.54 10870,1908.5C 10862.3,1927.93 10857.8,1948.09 10856.5,1969C 10852.7,2008.74 10850.6,2048.58 10850,2088.5C 10848.9,2183.18 10849.6,2277.85 10852,2372.5C 10853.3,2430.41 10857.6,2488.07 10865,2545.5C 10868.6,2571.01 10876.6,2595.01 10889,2617.5C 10897,2627.91 10906.8,2636.08 10918.5,2642C 10943.2,2654.23 10968.5,2664.89 10994.5,2674C 11082,2712.43 11120.1,2779.26 11109,2874.5C 11099.9,2934.48 11071.1,2982.31 11022.5,3018C 10995.1,3036.36 10965.1,3048.69 10932.5,3055C 10852,3071.32 10770.6,3080.98 10688.5,3084C 10584.8,3088.98 10481.1,3088.65 10377.5,3083C 10303.9,3078.72 10231.5,3066.72 10160.5,3047C 10136,3039.61 10112.4,3030.27 10089.5,3019C 10022.5,2982.74 9988.84,2926.24 9988.5,2849.5C 9989.2,2805.58 10002.4,2765.91 10028,2730.5C 10048.4,2703.54 10072.2,2680.04 10099.5,2660C 10114.5,2646.65 10127.7,2631.82 10139,2615.5C 10149.3,2596.35 10156.2,2576.02 10159.5,2554.5C 10167,2504.07 10172.1,2453.41 10175,2402.5C 10183.6,2237.28 10187.2,2071.95 10186,1906.5C 10186,1877.1 10182.7,1848.1 10176,1819.5C 10168.7,1794.21 10153.9,1774.71 10131.5,1761C 10117.3,1753.08 10103,1745.41 10088.5,1738C 10015.7,1693.13 9989.91,1628.97 10011,1545.5C 10019.3,1516.85 10033.3,1491.52 10053,1469.5C 10077.8,1442.87 10106,1420.71 10137.5,1403C 10184.8,1376.5 10233.8,1353.5 10284.5,1334C 10373.6,1298.9 10464.9,1271.23 10558.5,1251C 10612.1,1239.88 10666.1,1233.38 10720.5,1231.5 Z"/></g>
</svg>
