<svg xmlns="http://www.w3.org/2000/svg" width="210.0140869140625px" height="49.2px" viewBox="129.99295654296876 59.9 240.0140869140625 49.2" style="background: rgba(29, 14, 11, 0);" preserveAspectRatio="xMidYMid"><defs><filter id="editing-extrude-glow"><feFlood flood-color="rgba(84.70588235294116%,54.90196078431372%,31.764705882352935%,0)" result="flood-1"/><feMorphology operator="erode" radius="1" in="SourceAlpha" result="erode"/><feComposite operator="in" in="flood-1" in2="erode" result="comp1"/><feConvolveMatrix order="0,0" divisor="1" in="comp1" result="convolve" kernelMatrix=""/><feOffset dx="0" dy="0" in="convolve" result="extrude"/><feComposite operator="in" in="flood-1" in2="extrude" result="comp-extrude"/><feFlood flood-color="#f3e7c9" result="flood-2"/><feComposite operator="in" in="flood-2" in2="SourceAlpha" result="comp2"/><feMorphology operator="dilate" radius="1" in="comp2" result="dilate"/><feOffset dx="0" dy="0" in="dilate" result="offset"/><feGaussianBlur in="offset" stdDeviation="5.8" result="blur"/><feComponentTransfer in="blur" result="shadow"><feFuncA type="linear" slope="0.8" intercept="-0.2"/></feComponentTransfer><feMerge><feMergeNode in="shadow"/><feMergeNode in="comp-extrude"/><feMergeNode in="SourceGraphic"/></feMerge></filter></defs><g filter="url(#editing-extrude-glow)"><g transform="translate(131.82628297805786, 101.84000205993652)"><path d="M32.88-12.63L32.88-12.63L32.88-12.63Q34.46-11.47 34.46-9.00L34.46-9.00L34.46-9.00Q34.46-6.53 33.40-4.79L33.40-4.79L33.40-4.79Q32.33-3.05 30.26-1.71L30.26-1.71L30.26-1.71Q25.80 1.16 18.03 1.16L18.03 1.16L18.03 1.16Q10.25 1.16 6.01-2.90L6.01-2.90L6.01-2.90Q1.77-6.95 1.77-14.15L1.77-14.15L1.77-14.15Q1.77-24.34 7.08-32.09L7.08-32.09L7.08-32.09Q11.10-37.82 18.30-40.26L18.30-40.26L18.30-40.26Q22.02-41.48 25.68-41.48L25.68-41.48L25.68-41.48Q29.34-41.48 31.60-40.99L31.60-40.99L31.60-40.99Q33.85-40.50 35.56-39.53L35.56-39.53L35.56-39.53Q39.28-37.39 39.28-33.98L39.28-33.98L39.28-33.98Q39.28-30.87 36.36-28.55L36.36-28.55L36.36-28.55Q33.67-26.47 31.48-26.47L31.48-26.47L31.48-26.47Q29.28-26.47 28.36-26.78L28.36-26.78L28.36-26.78Q28.61-28.97 28.61-30.41L28.61-30.41L28.61-30.41Q28.61-31.84 28.55-32.88L28.55-32.88L28.55-32.88Q28.49-33.92 28.18-34.89L28.18-34.89L28.18-34.89Q27.57-37.15 25.71-37.15L25.71-37.15L25.71-37.15Q23.85-37.15 21.99-35.41L21.99-35.41L21.99-35.41Q20.13-33.67 18.54-30.74L18.54-30.74L18.54-30.74Q14.95-24.09 14.95-16.23L14.95-16.23L14.95-16.23Q14.95-12.44 17.08-10.28L17.08-10.28L17.08-10.28Q19.21-8.11 23.79-8.11L23.79-8.11L23.79-8.11Q27.21-8.11 30.44-10.37L30.44-10.37L30.44-10.37Q31.84-11.35 32.88-12.63ZM52.83 1.22L52.83 1.22L52.83 1.22Q39.41 1.22 39.41-11.41L39.41-11.41L39.41-11.41Q39.41-20.37 44.35-26.17L44.35-26.17L44.35-26.17Q49.59-32.33 58.68-32.33L58.68-32.33L58.68-32.33Q65.27-32.33 68.63-29.28L68.63-29.28L68.63-29.28Q71.98-26.23 71.98-19.82L71.98-19.82L71.98-19.82Q71.98-10.06 66.73-4.39L66.73-4.39L66.73-4.39Q61.61 1.22 52.83 1.22ZM54.41-25.31L54.41-25.31L54.41-25.31Q53.68-23.67 53.10-21.20L53.10-21.20L53.10-21.20Q52.52-18.73 51.79-14.82L51.79-14.82L51.79-14.82Q51.06-10.92 51.06-6.10L51.06-6.10L51.06-6.10Q51.06-4.51 51.58-3.48L51.58-3.48L51.58-3.48Q52.09-2.44 53.50-2.44L53.50-2.44L53.50-2.44Q54.90-2.44 55.78-3.11L55.78-3.11L55.78-3.11Q56.67-3.78 57.34-5.37L57.34-5.37L57.34-5.37Q58.56-8.17 59.54-13.39L59.54-13.39L59.54-13.39Q60.51-18.61 60.60-20.86L60.60-20.86L60.60-20.86Q60.70-23.12 60.70-24.80L60.70-24.80L60.70-24.80Q60.70-26.47 60.21-27.57L60.21-27.57L60.21-27.57Q59.72-28.67 58.35-28.67L58.35-28.67L58.35-28.67Q56.97-28.67 56.06-27.82L56.06-27.82L56.06-27.82Q55.14-26.96 54.41-25.31ZM94.67-17.14L94.67-17.14L94.67-17.14Q96.87-21.04 96.87-25.01L96.87-25.01L96.87-25.01Q96.87-27.63 94.98-27.63L94.98-27.63L94.98-27.63Q93.51-27.63 91.99-25.13L91.99-25.13L91.99-25.13Q90.40-22.63 89.91-19.40L89.91-19.40L86.74 0L74.11 1.22L80.34-31.11L90.40-32.33L89.30-26.17L89.30-26.17Q92.29-32.33 99.00-32.33L99.00-32.33L99.00-32.33Q102.54-32.33 104.46-30.50L104.46-30.50L104.46-30.50Q106.38-28.67 106.38-24.92L106.38-24.92L106.38-24.92Q106.38-21.17 103.91-18.79L103.91-18.79L103.91-18.79Q101.44-16.41 97.23-16.41L97.23-16.41L97.23-16.41Q95.40-16.41 94.67-17.14ZM135.79-4.18L135.79-4.18L135.79-4.18Q133.22-1.59 129.72-0.18L129.72-0.18L129.72-0.18Q126.21 1.22 122.73 1.22L122.73 1.22L122.73 1.22Q119.26 1.22 118.04 0.61L118.04 0.61L116.14 10.98L103.76 12.20L112.18-31.11L122.12-32.15L121.33-27.94L121.33-27.94Q123.89-32.27 129.20-32.27L129.20-32.27L129.20-32.27Q135.18-32.27 138.35-28.43L138.35-28.43L138.35-28.43Q141.15-24.95 141.15-19.64L141.15-19.64L141.15-19.64Q141.15-14.33 139.75-10.55L139.75-10.55L139.75-10.55Q138.35-6.77 135.79-4.18ZM122-21.29L118.77-3.42L118.77-3.42Q120.05-2.32 121.63-2.32L121.63-2.32L121.63-2.32Q123.22-2.32 124.14-2.93L124.14-2.93L124.14-2.93Q125.05-3.54 125.72-4.76L125.72-4.76L125.72-4.76Q127.55-8.05 129.02-18.06L129.02-18.06L129.02-18.06Q129.44-20.98 129.44-23.85L129.44-23.85L129.44-23.85Q129.44-26.72 128.80-27.63L128.80-27.63L128.80-27.63Q128.16-28.55 126.94-28.55L126.94-28.55L126.94-28.55Q123.22-28.55 122-21.29L122-21.29ZM169.52-10.31L169.52-10.31L169.52-10.31Q171.04-9.27 171.04-6.98L171.04-6.98L171.04-6.98Q171.04-4.70 169.89-3.23L169.89-3.23L169.89-3.23Q168.73-1.77 166.84-0.79L166.84-0.79L166.84-0.79Q162.93 1.22 158.72 1.22L158.72 1.22L158.72 1.22Q154.51 1.22 152.04 0.30L152.04 0.30L152.04 0.30Q149.57-0.61 147.93-2.32L147.93-2.32L147.93-2.32Q144.69-5.55 144.69-11.47L144.69-11.47L144.69-11.47Q144.69-20.68 149.69-26.29L149.69-26.29L149.69-26.29Q155.06-32.33 164.40-32.33L164.40-32.33L164.40-32.33Q170.19-32.33 173.06-29.89L173.06-29.89L173.06-29.89Q175.19-28.06 175.19-25.07L175.19-25.07L175.19-25.07Q175.19-14.33 156.65-14.33L156.65-14.33L156.65-14.33Q156.40-12.75 156.40-11.41L156.40-11.41L156.40-11.41Q156.40-8.60 157.65-7.53L157.65-7.53L157.65-7.53Q158.91-6.47 161.22-6.47L161.22-6.47L161.22-6.47Q163.54-6.47 166.01-7.53L166.01-7.53L166.01-7.53Q168.48-8.60 169.52-10.31ZM157.08-16.96L157.08-16.96L157.08-16.96Q161.41-16.96 163.91-19.64L163.91-19.64L163.91-19.64Q166.41-22.20 166.41-26.29L166.41-26.29L166.41-26.29Q166.41-27.69 165.89-28.46L165.89-28.46L165.89-28.46Q165.37-29.22 164.33-29.22L164.33-29.22L164.33-29.22Q163.30-29.22 162.41-28.82L162.41-28.82L162.41-28.82Q161.53-28.43 160.61-27.08L160.61-27.08L160.61-27.08Q158.36-24.03 157.08-16.96ZM204.05 1.22L204.05 1.22L204.05 1.22Q196.24 1.22 195.51-9.88L195.51-9.88L185.01-9.88L185.01-9.88Q183.79-7.08 182.94-4.64L182.94-4.64L181.35 0L172.81 0L192.03-40.26L205.14-40.26L207.71-10.61L207.71-10.61Q208.31-4.21 210.75-2.32L210.75-2.32L210.75-2.32Q208.99 1.22 204.05 1.22ZM190.26-22.08L186.90-14.33L195.32-14.33L194.59-30.01L194.59-31.66L190.26-22.08ZM226.92 0L213.62 0L221.37-40.26L234.79-40.26L226.92 0Z" fill="#ffffff"/></g></g><style>text {
  font-size: 124px;
  font-family: Arial Black;
  dominant-baseline: central;
  text-anchor: middle;
}</style></svg>
