<svg xmlns="http://www.w3.org/2000/svg" version="1.1" width="200" height="24">
<path d="M0 0 C13.77998489 10.8337075 18.62523128 28.51569811 21.61328125 44.98828125 C22.10281776 49.55076148 22.08690382 54.0455961 22.00390625 58.62890625 C18.08791807 58.97053306 14.17103443 59.3006305 10.25390625 59.62890625 C9.16207031 59.72429687 8.07023437 59.8196875 6.9453125 59.91796875 C-8.87245726 61.22831654 -8.87245726 61.22831654 -14.99609375 60.62890625 C-17.80244981 57.82255019 -17.48130548 55.6091761 -17.87109375 51.69140625 C-18.81343253 43.61116663 -20.25504933 36.07278257 -25.43359375 29.56640625 C-29.48677263 26.50180759 -32.29696582 25.40530061 -37.37109375 25.62890625 C-42.62553361 26.39827515 -45.63172617 28.61593674 -48.99609375 32.62890625 C-52.24340835 38.37355873 -53.86606447 44.25792625 -54.74609375 50.75390625 C-54.86750732 51.63062988 -54.9889209 52.50735352 -55.11401367 53.41064453 C-56.12684156 61.75703057 -56.2897916 70.10671227 -56.30859375 78.50390625 C-56.31681152 80.40873779 -56.31681152 80.40873779 -56.32519531 82.35205078 C-56.2242122 95.79151068 -55.97881884 110.92256746 -47.62109375 122.12890625 C-44.15022677 125.43449385 -41.62439478 126.55327169 -36.82421875 126.69140625 C-31.12421551 126.38536581 -27.94754945 124.94793922 -23.99609375 120.62890625 C-19.74992997 114.779599 -18.84721701 107.78102915 -17.609375 100.82421875 C-16.99609375 97.62890625 -16.99609375 97.62890625 -15.99609375 95.62890625 C-8.14949211 95.52744157 -0.33223995 95.56743217 7.50390625 96.00390625 C9.4065625 96.10832031 9.4065625 96.10832031 11.34765625 96.21484375 C15.14476529 96.64485824 18.37302605 97.4778798 22.00390625 98.62890625 C25.2881021 107.28928572 19.7860275 121.68688156 16.44921875 129.69921875 C14.1223388 134.41586731 11.26709609 138.51813464 8.00390625 142.62890625 C7.47023438 143.33789062 6.9365625 144.046875 6.38671875 144.77734375 C-1.47777539 154.59855414 -13.59963158 160.80133325 -25.99609375 162.62890625 C-44.67578916 163.70172659 -61.67434165 162.01455927 -76.37109375 149.25390625 C-90.70610946 135.46759928 -97.47422295 117.08713043 -99.99609375 97.62890625 C-100.10824219 96.81808594 -100.22039062 96.00726562 -100.3359375 95.171875 C-103.64322135 66.403036 -100.80775681 33.44763999 -82.99609375 9.62890625 C-63.09514537 -14.6944751 -25.21255226 -17.31821104 0 0 Z " fill="#FFFFFF" transform="translate(214.99609375,903.37109375)"/>
<path d="M0 0 C13.53 0 27.06 0 41 0 C44.60599375 11.4189802 48.17894309 22.81124542 51.49243164 34.31225586 C51.90197076 35.72731268 52.31166421 37.14232484 52.72149658 38.55729675 C54.03852419 43.10862217 55.35010891 47.66150481 56.66015625 52.21484375 C56.8844735 52.99449344 57.10879076 53.77414313 57.3399055 54.57741857 C59.45867429 61.94359968 61.57475394 69.31054999 63.68543339 76.67905331 C66.36993892 86.04991874 69.06725102 95.41689801 71.78111178 104.7793054 C73.69935714 111.4009589 75.60304799 118.02669073 77.49593633 124.65563685 C78.62358055 128.60313842 79.757648 132.54852537 80.9075489 136.48960686 C81.9838783 140.17957121 83.04217521 143.87422561 84.08662415 147.57333565 C84.47302579 148.92976316 84.8660146 150.28433369 85.26597404 151.63682556 C85.80981196 153.47945334 86.32793867 155.32961215 86.84461975 157.18003845 C87.14194032 158.21357924 87.43926088 159.24712004 87.74559116 160.31198025 C88 163 88 163 86.68966866 165.33368397 C85 167 85 167 83.12068176 167.48101807 C82.41674789 167.47213562 81.71281403 167.46325317 80.98754883 167.45410156 C80.18694534 167.45379944 79.38634186 167.45349731 78.56147766 167.45318604 C77.70201035 167.43254089 76.84254303 167.41189575 75.95703125 167.390625 C74.63163582 167.38213531 74.63163582 167.38213531 73.27946472 167.37347412 C70.45659257 167.35107867 67.63498862 167.30087727 64.8125 167.25 C62.89910687 167.22993906 60.98569385 167.21168758 59.07226562 167.1953125 C54.38102158 167.15120357 49.69072582 167.08215485 45 167 C43.99720444 162.94462159 43.00047442 158.8878146 42.00927734 154.82958984 C41.67141344 153.44995189 41.33191099 152.07071411 40.99072266 150.69189453 C40.49988814 148.70709142 40.01501256 146.72091201 39.53125 144.734375 C39.23798828 143.54038086 38.94472656 142.34638672 38.64257812 141.11621094 C38 138 38 138 38 134 C24.47 134 10.94 134 -3 134 C-3.495 137.96 -3.495 137.96 -4 142 C-4.43370147 144.09120295 -4.90234735 146.17554661 -5.41015625 148.25 C-5.6512915 149.24515625 -5.89242676 150.2403125 -6.14086914 151.265625 C-6.44500732 152.49796875 -6.74914551 153.7303125 -7.0625 155 C-8.031875 158.96 -9.00125 162.92 -10 167 C-22.21 167 -34.42 167 -47 167 C-49.24989268 161.37526831 -49.24989268 161.37526831 -48.12582397 157.76293945 C-47.88073971 156.94713913 -47.63565544 156.13133881 -47.38314438 155.29081726 C-47.09992451 154.40723038 -46.81670464 153.52364349 -46.52490234 152.61328125 C-46.23666721 151.66922928 -45.94843208 150.72517731 -45.65146255 149.7525177 C-44.68585638 146.60115686 -43.69812992 143.45715898 -42.7109375 140.3125 C-42.02220544 138.07654767 -41.33526027 135.84004425 -40.6499939 133.60302734 C-39.19238736 128.8484961 -37.72762573 124.0962502 -36.25866699 119.34521484 C-32.91450491 108.50185762 -29.67829379 97.62623432 -26.43448639 86.75253296 C-24.62785421 80.70075236 -22.81359015 74.65126083 -21 68.6015625 C-18.7824087 61.20183236 -16.56548747 53.80190293 -14.35058594 46.40136719 C-12.51291494 40.26138424 -10.67348584 34.12193059 -8.83280563 27.98284912 C-8.14079112 25.6736774 -7.44942083 23.36431251 -6.75871658 21.05474854 C-5.80909187 17.87974092 -4.85722143 14.70541514 -3.90478516 11.53125 C-3.62337173 10.58841156 -3.34195831 9.64557312 -3.05201721 8.67416382 C-2.79465286 7.81811554 -2.53728851 6.96206726 -2.27212524 6.08007812 C-2.04917597 5.33568481 -1.82622669 4.5912915 -1.59652138 3.82434082 C-1 2 -1 2 0 0 Z M17 52 C15.74859008 56.90564996 14.50377333 61.81291221 13.26464844 66.72167969 C12.84353975 68.3861841 12.42073234 70.05025981 11.99609375 71.71386719 C9.5997927 81.10691517 7.4140446 90.3969279 6 100 C13.59 100 21.18 100 29 100 C27.76170865 93.18939759 26.49604881 86.52934312 24.8359375 79.83203125 C24.63900299 79.02634201 24.44206848 78.22065277 24.23916626 77.39054871 C23.62081915 74.86377503 22.99800306 72.33812924 22.375 69.8125 C21.95022196 68.08015138 21.52574044 66.34773003 21.1015625 64.61523438 C20.07112403 60.40931011 19.03668136 56.20438966 18 52 C17.67 52 17.34 52 17 52 Z " fill="#FFFFFF" transform="translate(1478,896)"/>
<path d="M0 0 C11.28806401 8.02495979 17.03059099 20.2890444 19.88671875 33.58984375 C23.72642996 58.71252569 23.52116641 89.05230521 8.29296875 110.49609375 C2.3976665 117.72618141 -5.10566045 122.77722816 -14.36328125 124.52734375 C-23.68341808 125.15485848 -31.98803347 125.25622515 -40.36328125 120.52734375 C-40.69328125 120.19734375 -41.02328125 119.86734375 -41.36328125 119.52734375 C-41.38310059 120.75888184 -41.40291992 121.99041992 -41.42333984 123.25927734 C-41.49927307 127.81792036 -41.58800888 132.37623902 -41.68066406 136.93457031 C-41.71900474 138.90944019 -41.75384855 140.88438111 -41.78515625 142.859375 C-41.83069672 145.6942692 -41.8887084 148.52867205 -41.94921875 151.36328125 C-41.96654556 152.69303482 -41.96654556 152.69303482 -41.98422241 154.0496521 C-42.0040921 154.87035187 -42.02396179 155.69105164 -42.04443359 156.53662109 C-42.05775726 157.26054047 -42.07108093 157.98445984 -42.08480835 158.73031616 C-42.36328125 160.52734375 -42.36328125 160.52734375 -44.36328125 162.52734375 C-46.99268321 162.72699748 -49.51448288 162.80718485 -52.14453125 162.79296875 C-52.91381958 162.7948822 -53.68310791 162.79679565 -54.47570801 162.79876709 C-56.10311205 162.80012883 -57.73052695 162.79643314 -59.35791016 162.78808594 C-61.85343756 162.77738596 -64.34824507 162.78798126 -66.84375 162.80078125 C-68.42317868 162.79945965 -70.00260691 162.79689725 -71.58203125 162.79296875 C-72.33101685 162.79701721 -73.08000244 162.80106567 -73.85168457 162.80523682 C-79.13335882 162.75726618 -79.13335882 162.75726618 -81.36328125 160.52734375 C-81.61496353 157.77243805 -81.61496353 157.77243805 -81.61724854 154.18811035 C-81.62036852 153.5303607 -81.6234885 152.87261106 -81.62670302 152.1949296 C-81.63470967 149.9807746 -81.62834918 147.76689164 -81.62207031 145.55273438 C-81.624779 143.96949604 -81.62833924 142.38625896 -81.63269043 140.80302429 C-81.6418313 136.49526332 -81.63826321 132.18759783 -81.63193226 127.87983513 C-81.62688103 123.37907523 -81.63156126 118.87832369 -81.63470459 114.37756348 C-81.6383468 106.81826301 -81.63353846 99.25900158 -81.62402344 91.69970703 C-81.6131384 82.95076383 -81.61666379 74.20191383 -81.62767625 65.45297289 C-81.63674187 57.95146907 -81.63803796 50.44999337 -81.63279891 42.94848585 C-81.62967521 38.46371399 -81.62928079 33.97898599 -81.63587189 29.49421692 C-81.64163421 25.27863498 -81.63766899 21.06317362 -81.62608337 16.84760475 C-81.6234308 15.29716505 -81.624212 13.74671526 -81.6286087 12.19627953 C-81.63404224 10.08624007 -81.62725721 7.97659144 -81.61724854 5.86657715 C-81.61649448 4.68374901 -81.61574043 3.50092087 -81.61496353 2.28224945 C-81.36328125 -0.47265625 -81.36328125 -0.47265625 -79.36328125 -2.47265625 C-76.87761582 -2.67214182 -74.50577375 -2.75255368 -72.01953125 -2.73828125 C-71.29463501 -2.7401947 -70.56973877 -2.74210815 -69.82287598 -2.74407959 C-68.28962863 -2.74544112 -66.75636975 -2.74174689 -65.22314453 -2.73339844 C-62.87245866 -2.72269803 -60.52253702 -2.73329433 -58.171875 -2.74609375 C-56.68359206 -2.74477215 -55.19530959 -2.74220974 -53.70703125 -2.73828125 C-53.00179321 -2.74232971 -52.29655518 -2.74637817 -51.56994629 -2.75054932 C-46.59320611 -2.70258111 -46.59320611 -2.70258111 -44.36328125 -0.47265625 C-43.73828125 2.15234375 -43.73828125 2.15234375 -43.36328125 4.52734375 C-42.87859375 4.05683594 -42.39390625 3.58632813 -41.89453125 3.1015625 C-29.805067 -8.12768987 -14.04343521 -8.75103318 0 0 Z M-37.36328125 25.52734375 C-44.38700911 33.79553545 -42.67253301 46.49740553 -42.62402344 56.71240234 C-42.61333362 59.38922936 -42.62394632 62.06538128 -42.63671875 64.7421875 C-43.49649684 79.73367559 -43.49649684 79.73367559 -39.03222656 93.28076172 C-36.15536948 95.42956691 -32.84568029 95.62956681 -29.36328125 95.52734375 C-25.87005626 94.20768098 -24.69347017 93.08783944 -22.80078125 89.875 C-15.90791114 73.82285411 -17.65766417 48.33142546 -21.36328125 31.52734375 C-23.12822778 27.49453581 -24.421631 24.6773348 -28.36328125 22.52734375 C-32.71600682 22.52734375 -33.92368238 23.05788815 -37.36328125 25.52734375 Z " fill="#FFFFFF" transform="translate(987.36328125,940.47265625)"/>
<path d="M0 0 C0.8559375 0.3403125 1.711875 0.680625 2.59375 1.03125 C12.57730626 5.48175098 19.43034239 13.15070973 24 23 C32.93172452 46.40208253 33.65635488 76.8235268 24.71484375 100.38671875 C19.82488958 111.24268942 11.86609269 120.46846392 0.67578125 124.92578125 C-15.0055282 130.39479992 -32.7825117 129.84089257 -47.76171875 122.6796875 C-59.58914321 116.2090786 -66.20407945 105.17347656 -70.0703125 92.48828125 C-75.83014864 68.41440303 -75.8427812 39.27304358 -63.4375 17.22265625 C-56.53226943 6.59307679 -46.89949092 0.74406941 -34.7734375 -2.6171875 C-23.5544521 -4.16572351 -10.55683895 -4.36349343 0 0 Z M-28 29 C-31.93534916 36.19051452 -32.15589774 44.37787473 -32.16796875 52.390625 C-32.17129715 53.17588562 -32.17462555 53.96114624 -32.17805481 54.77020264 C-32.18309132 56.42410705 -32.18546415 58.07802152 -32.18530273 59.73193359 C-32.18748169 62.22901656 -32.20565164 64.72565163 -32.22460938 67.22265625 C-32.88448982 83.77851653 -32.88448982 83.77851653 -26 98 C-22.60030189 99.3309316 -22.60030189 99.3309316 -19 99 C-14.89513836 96.62830216 -13.42474655 94.42327172 -12 90 C-11.47722193 87.096337 -11.16284837 84.18534264 -10.875 81.25 C-10.7915332 80.41017578 -10.70806641 79.57035156 -10.62207031 78.70507812 C-9.54212394 66.98876202 -9.70571335 55.521851 -10.8125 43.8125 C-10.88243164 43.02230469 -10.95236328 42.23210938 -11.02441406 41.41796875 C-11.62389162 35.85787415 -12.77408404 31.15411222 -16.9375 27.125 C-21.26989851 24.76187354 -24.46594937 26.10026615 -28 29 Z " fill="#FFFFFF" transform="translate(474,938)"/>
<path d="M0 0 C1.56450632 1.19996116 3.1081064 2.42788871 4.625 3.6875 C5.59566406 4.47253906 5.59566406 4.47253906 6.5859375 5.2734375 C17.41080916 14.96382479 21.47511613 31.70440325 22.625 45.6875 C22.77459931 48.98071104 22.80994078 52.26622144 22.8125 55.5625 C22.82474609 56.41585937 22.83699219 57.26921875 22.84960938 58.1484375 C22.85154297 58.963125 22.85347656 59.7778125 22.85546875 60.6171875 C22.85957764 61.35179199 22.86368652 62.08639648 22.86791992 62.84326172 C22.625 64.6875 22.625 64.6875 20.625 66.6875 C18.10665894 66.92800903 18.10665894 66.92800903 14.89013672 66.91455078 C13.68904266 66.91439972 12.48794861 66.91424866 11.25045776 66.91409302 C9.94835358 66.90377045 8.64624939 66.89344788 7.3046875 66.8828125 C5.96233327 66.87908276 4.61997633 66.87623561 3.27761841 66.87423706 C-0.257014 66.86659744 -3.79148228 66.8469463 -7.3260498 66.8248291 C-10.9321877 66.80437765 -14.53835209 66.79523685 -18.14453125 66.78515625 C-25.22142135 66.7637006 -32.29819997 66.72956079 -39.375 66.6875 C-39.24358777 69.08906785 -39.10447557 71.48977661 -38.9609375 73.890625 C-38.92476318 74.56625488 -38.88858887 75.24188477 -38.85131836 75.93798828 C-38.49900776 81.66565168 -37.77937839 86.78020006 -34.01171875 91.3359375 C-31.20800718 93.65117426 -27.88132855 93.79375238 -24.375 93.6875 C-20.92292549 92.51509734 -19.018548 91.42298343 -16.625 88.6875 C-14.74522114 84.17603073 -14.09196841 79.5038407 -13.375 74.6875 C-5.49277991 74.58557474 2.37541458 74.61858626 10.25 75 C11.54164062 75.05800781 12.83328125 75.11601563 14.1640625 75.17578125 C17.71938038 75.70145466 19.72723646 76.61687586 22.625 78.6875 C22.05237034 89.94921672 18.1653809 100.25123226 10.625 108.6875 C10.12484375 109.29078125 9.6246875 109.8940625 9.109375 110.515625 C1.75562471 118.7261229 -8.92781709 122.97354465 -19.77539062 123.89038086 C-22.25022756 123.99002038 -24.71075537 124.01680288 -27.1875 124 C-28.50016846 123.99154053 -28.50016846 123.99154053 -29.83935547 123.98291016 C-43.49348873 123.72795222 -54.03903413 119.6970978 -64.375 110.6875 C-76.77795545 95.77846793 -80.79078191 78.55513087 -80.6875 59.4375 C-80.68258545 58.34920898 -80.6776709 57.26091797 -80.67260742 56.13964844 C-80.4024653 37.43750144 -76.39952126 19.8024463 -63.375 5.6875 C-46.26003286 -9.57855098 -19.53013348 -13.00056862 0 0 Z M-36.0625 26.4375 C-38.78573617 31.10590486 -39.375 35.32960396 -39.375 40.6875 C-31.125 40.6875 -22.875 40.6875 -14.375 40.6875 C-15.40300158 29.77956937 -15.40300158 29.77956937 -21.375 22.6875 C-27.47865394 20.53762999 -31.58157135 21.79061103 -36.0625 26.4375 Z " fill="#FFFFFF" transform="translate(1253.375,942.3125)"/>
<path d="M0 0 C1.2219104 0.00607269 1.2219104 0.00607269 2.46850586 0.01226807 C3.30438232 0.01035461 4.14025879 0.00844116 5.00146484 0.00646973 C6.77010397 0.00510771 8.53875309 0.0088053 10.30737305 0.01715088 C13.02016579 0.02785031 15.7322963 0.01725631 18.44506836 0.00445557 C20.16121566 0.00577716 21.87736255 0.00833955 23.59350586 0.01226807 C24.40811279 0.0082196 25.22271973 0.00417114 26.06201172 0 C31.80108658 0.04797379 31.80108658 0.04797379 34.03100586 2.27789307 C34.28268814 5.06403351 34.28268814 5.06403351 34.28497314 8.6930542 C34.28809313 9.35897095 34.29121311 10.0248877 34.29442763 10.71098375 C34.30243469 12.9527767 34.29607362 15.194301 34.28979492 17.43609619 C34.29250359 19.03903869 34.29606382 20.64197994 34.30041504 22.24491882 C34.30955613 26.6063967 34.30598773 30.96778028 34.29965687 35.32925987 C34.29460575 39.88607418 34.29928584 44.44288022 34.3024292 48.99969482 C34.30607144 56.65315201 34.30126298 64.30657064 34.29174805 71.96002197 C34.280863 80.81802793 34.28438839 89.67594183 34.29540086 98.53394556 C34.30446639 106.12886676 34.30576262 113.72376019 34.30052352 121.31868505 C34.29739977 125.85934808 34.29700554 130.39996778 34.3035965 134.94062805 C34.30935868 139.2087391 34.30539385 143.47673105 34.29380798 147.74482918 C34.29115534 149.31461959 34.29193674 150.88441997 34.29633331 152.45420647 C34.30176655 154.5905186 34.29498217 156.72644467 34.28497314 158.86273193 C34.28421909 160.06030876 34.28346504 161.25788559 34.28268814 162.49175262 C34.03100586 165.27789307 34.03100586 165.27789307 32.03100586 167.27789307 C29.18560444 167.47779534 26.43962802 167.55766282 23.59350586 167.54351807 C22.75762939 167.54543152 21.92175293 167.54734497 21.06054688 167.54931641 C19.29190775 167.55067842 17.52325863 167.54698083 15.75463867 167.53863525 C13.04184592 167.52793582 10.32971542 167.53852983 7.61694336 167.55133057 C5.90079606 167.55000897 4.18464917 167.54744659 2.46850586 167.54351807 C1.24659546 167.54959076 1.24659546 167.54959076 0 167.55578613 C-5.73907486 167.50781235 -5.73907486 167.50781235 -7.96899414 165.27789307 C-8.22067642 162.49175262 -8.22067642 162.49175262 -8.22296143 158.86273193 C-8.22608141 158.19681518 -8.22920139 157.53089843 -8.23241591 156.84480238 C-8.24042297 154.60300943 -8.23406191 152.36148513 -8.2277832 150.11968994 C-8.23049187 148.51674744 -8.2340521 146.91380619 -8.23840332 145.31086731 C-8.24754441 140.94938943 -8.24397601 136.58800585 -8.23764515 132.22652626 C-8.23259403 127.66971196 -8.23727412 123.11290592 -8.24041748 118.55609131 C-8.24405973 110.90263412 -8.23925127 103.2492155 -8.22973633 95.59576416 C-8.21885128 86.7377582 -8.22237668 77.8798443 -8.23338914 69.02184057 C-8.24245467 61.42691937 -8.2437509 53.83202594 -8.2385118 46.23710108 C-8.23538805 41.69643805 -8.23499383 37.15581835 -8.24158478 32.61515808 C-8.24734696 28.34704704 -8.24338213 24.07905509 -8.23179626 19.81095695 C-8.22914362 18.24116654 -8.22992502 16.67136616 -8.23432159 15.10157967 C-8.23975483 12.96526754 -8.23297045 10.82934147 -8.22296143 8.6930542 C-8.22220737 7.49547737 -8.22145332 6.29790054 -8.22067642 5.06403351 C-7.72987621 -0.36915908 -4.7510495 0.03971473 0 0 Z " fill="#FFFFFF" transform="translate(1736.968994140625,895.7221069335938)"/>
<path d="M0 0 C0.07413521 5.07198888 0.12859451 10.14366268 0.16479492 15.21606445 C0.17988516 16.94170627 0.20035975 18.66730972 0.22631836 20.39282227 C0.26269209 22.87265488 0.27972359 25.35198064 0.29296875 27.83203125 C0.30845261 28.60400345 0.32393646 29.37597565 0.33988953 30.17134094 C0.34156859 35.51043031 0.34156859 35.51043031 -1.39453125 37.9987793 C-3.49877096 39.31104923 -4.73252837 39.20856396 -7.1875 39 C-13.51936618 38.81467709 -17.93735895 40.21862819 -22.75 44.375 C-29.39193244 53.49489286 -29.58112981 65.40344427 -29.5390625 76.19921875 C-29.54899698 77.61075851 -29.56094852 79.02228535 -29.57479858 80.43379211 C-29.60679832 84.10392912 -29.61752335 87.77376801 -29.62164307 91.44403076 C-29.63048788 97.35510005 -29.66583079 103.26592997 -29.7138176 109.17679787 C-29.72639493 111.23430611 -29.72564785 113.29150596 -29.72354126 115.3490448 C-29.73397964 117.20787041 -29.73397964 117.20787041 -29.74462891 119.10424805 C-29.74588776 120.19754929 -29.74714661 121.29085052 -29.7484436 122.4172821 C-30 125 -30 125 -32 127 C-34.70135323 127.19973733 -37.29797211 127.27981573 -40 127.265625 C-40.79148437 127.26753845 -41.58296875 127.2694519 -42.3984375 127.27142334 C-44.0729199 127.27278518 -45.74741285 127.26908882 -47.421875 127.26074219 C-49.98982381 127.2500424 -52.55707303 127.26063725 -55.125 127.2734375 C-56.75000155 127.2721159 -58.37500266 127.26955351 -60 127.265625 C-61.15628906 127.27169769 -61.15628906 127.27169769 -62.3359375 127.27789307 C-67.77007868 127.22992132 -67.77007868 127.22992132 -70 125 C-70.25168228 122.86978912 -70.25168228 122.86978912 -70.25396729 120.17932129 C-70.25960693 119.16134964 -70.26524658 118.14337799 -70.27105713 117.09455872 C-70.26700867 115.973452 -70.26296021 114.85234528 -70.25878906 113.69726562 C-70.2622937 112.52000412 -70.26579834 111.34274261 -70.26940918 110.12980652 C-70.27671766 106.89636759 -70.27498447 103.66309164 -70.26865101 100.42965508 C-70.2635967 97.04998296 -70.26828087 93.67032194 -70.27142334 90.29064941 C-70.27506465 84.61448199 -70.27025958 78.93836657 -70.26074219 73.26220703 C-70.24985729 66.69451623 -70.25338275 60.12694959 -70.264395 53.5592618 C-70.27346319 47.926105 -70.27475546 42.29298563 -70.26951766 36.65982389 C-70.26639537 33.29287397 -70.26599567 29.92598246 -70.27259064 26.55903625 C-70.27764624 22.80684913 -70.26995905 19.05490343 -70.25878906 15.30273438 C-70.26283752 14.18162766 -70.26688599 13.06052094 -70.27105713 11.90544128 C-70.26541748 10.88746964 -70.25977783 9.86949799 -70.25396729 8.82067871 C-70.25321323 7.93282433 -70.25245918 7.04496994 -70.25168228 6.13021088 C-70 4 -70 4 -68 2 C-64.8671875 1.74121094 -64.8671875 1.74121094 -60.875 1.734375 C-60.1722998 1.73246155 -59.46959961 1.7305481 -58.74560547 1.72857666 C-57.25943646 1.72721525 -55.77325555 1.73090868 -54.28710938 1.73925781 C-52.00884354 1.74995846 -49.73136623 1.73936161 -47.453125 1.7265625 C-46.01041492 1.7278841 -44.56770534 1.73044651 -43.125 1.734375 C-41.80757812 1.73663086 -40.49015625 1.73888672 -39.1328125 1.74121094 C-36 2 -36 2 -34 4 C-33.43479997 6.65537372 -33.26211802 9.29144713 -33 12 C-32.41605469 11.22076172 -32.41605469 11.22076172 -31.8203125 10.42578125 C-24.55122386 1.36454402 -11.75565581 -5.8778279 0 0 Z " fill="#FFFFFF" transform="translate(744,936)"/>
</svg>
